<?xml version="1.0" standalone="no"?>
<!DOCTYPE svg PUBLIC "-//W3C//DTD SVG 20010904//EN"
 "http://www.w3.org/TR/2001/REC-SVG-20010904/DTD/svg10.dtd">
<svg version="1.0" xmlns="http://www.w3.org/2000/svg"
 width="300.000000pt" height="300.000000pt" viewBox="0 0 300.000000 300.000000"
 preserveAspectRatio="xMidYMid meet">
<metadata>
Created by potrace 1.14, written by Peter Selinger 2001-2017
</metadata>
<g transform="translate(0.000000,300.000000) scale(0.100000,-0.100000)"
fill="#000000" stroke="none">
<path d="M374 2938 c7 -55 25 -113 26 -81 0 6 7 19 16 28 15 15 18 15 36 -2
31 -28 48 -80 48 -145 0 -91 -27 -122 -72 -81 -23 20 -22 26 -3 -172 18 -185
19 -239 4 -229 -8 5 -9 -8 -4 -45 l7 -51 -39 0 -38 -1 64 -60 c47 -45 60 -64
52 -72 -8 -8 -19 -7 -40 6 -16 9 -36 17 -45 17 -19 0 -21 21 -4 38 6 6 9 14 7
17 -12 12 -118 25 -202 25 -148 0 -209 32 -132 69 l30 15 -25 7 c-14 4 -33 7
-42 8 -17 1 -18 -58 -18 -1114 l0 -1115 1108 0 1108 0 27 28 c26 27 31 28 75
21 26 -4 73 -8 105 -8 50 -1 57 -3 57 -21 0 -19 7 -20 260 -20 l260 0 0 260 0
261 -22 -12 c-15 -8 -53 -9 -132 -3 -61 4 -129 7 -151 7 -22 -1 -60 1 -85 5
-41 6 -38 7 40 13 47 4 145 7 218 8 l132 1 0 468 0 467 -151 -3 c-82 -2 -160
-1 -172 2 -22 5 -64 62 -54 72 3 3 44 2 91 -2 75 -6 86 -9 86 -25 0 -16 8 -19
48 -19 26 0 71 3 100 6 l52 7 0 67 0 67 -47 -8 c-27 -4 -61 -12 -78 -19 -61
-24 -290 8 -262 36 4 4 51 11 104 15 54 5 130 14 170 20 40 6 81 9 93 6 17 -4
20 0 20 30 l0 34 -100 -2 c-55 -1 -100 -7 -100 -11 0 -11 -260 -9 -281 3 -19
10 -31 39 -55 129 -30 114 -105 288 -170 398 -35 58 -64 109 -64 114 0 4 10
28 22 53 24 50 21 63 -13 45 -19 -11 -25 -10 -36 6 -7 10 -13 28 -13 40 0 13
-8 24 -20 27 -11 3 -20 14 -20 24 0 32 -59 264 -86 341 l-26 72 -182 0 -183 0
-62 -104 -62 -103 -137 -6 c-169 -7 -223 -21 -380 -99 l-123 -61 -37 35 c-20
19 -53 47 -72 62 -54 44 -168 145 -241 214 l-66 62 -63 0 -63 0 7 -62z m1466
-282 c22 8 64 17 95 20 61 7 71 -3 35 -41 -12 -13 -17 -28 -14 -42 5 -17 15
-21 59 -25 30 -3 61 -11 70 -18 14 -12 13 -16 -15 -45 -29 -30 -31 -36 -24
-82 7 -54 -9 -83 -46 -83 -13 0 -21 -12 -29 -45 -8 -32 -16 -45 -29 -45 -28 0
-96 44 -107 68 -5 12 -13 22 -18 22 -4 0 -5 15 -2 34 6 31 4 34 -24 44 l-31
11 0 133 c0 94 4 138 13 147 10 10 14 4 20 -27 l8 -39 39 13z m-1130 -241 c11
-25 26 -71 35 -103 14 -55 14 -58 -6 -74 -18 -16 -19 -19 -6 -45 13 -24 13
-32 0 -66 -14 -33 -14 -40 -2 -48 11 -7 12 -10 1 -21 -11 -11 -19 -7 -43 21
-23 25 -36 32 -55 28 -30 -5 -48 19 -58 76 -6 30 -13 40 -41 52 -19 7 -35 21
-35 29 0 8 20 29 44 45 56 39 63 63 25 85 -16 10 -29 21 -29 25 0 14 72 40
113 40 35 1 39 -2 57 -44z m-239 -476 c-3 -16 -9 -30 -14 -30 -4 1 -23 1 -43
1 l-37 0 38 30 c49 39 64 39 56 -1z m1278 -106 c28 -31 51 -60 51 -65 0 -4 6
-5 14 -2 8 3 17 1 21 -5 4 -7 -4 -11 -21 -11 -22 0 -25 -2 -14 -15 7 -8 21
-15 31 -15 19 0 152 -167 144 -181 -3 -3 -39 -9 -82 -13 -43 -4 -118 -16 -167
-26 -49 -11 -91 -18 -93 -16 -2 2 6 50 17 107 12 57 24 148 27 202 3 53 9 97
14 97 4 0 30 -26 58 -57z m836 -313 c31 -32 28 -44 -16 -55 -25 -6 -27 -4 -31
32 -8 63 4 68 47 23z m-2237 3 c-10 -2 -26 -2 -35 0 -10 3 -2 5 17 5 19 0 27
-2 18 -5z m1694 -83 c26 -46 48 -89 48 -96 0 -7 -10 -9 -26 -6 -21 4 -25 9
-19 29 l6 25 -23 -25 c-14 -15 -38 -27 -62 -31 -34 -5 -38 -3 -33 14 7 27 -1
25 -25 -5 -11 -14 -26 -25 -34 -25 -22 0 -157 -64 -170 -81 -6 -8 -14 -29 -17
-47 -7 -33 -6 -33 22 -27 26 6 30 3 41 -29 12 -37 60 -96 78 -96 6 0 -3 13
-19 29 -36 36 -36 54 -3 103 28 39 54 50 54 22 0 -11 -5 -14 -16 -10 -12 4
-15 0 -12 -17 2 -16 11 -23 31 -25 33 -4 55 11 59 41 l3 22 23 -22 c24 -25 30
-81 10 -101 -6 -6 -9 -14 -6 -17 3 -3 13 10 22 29 18 39 21 108 6 137 -9 17
-7 19 19 19 35 0 41 -13 42 -88 0 -56 0 -57 17 -33 9 13 27 49 39 80 l22 56 0
-65 c1 -114 -14 -190 -63 -325 -5 -12 7 -4 30 20 l37 40 -7 -35 c-25 -135
-415 -509 -531 -510 -44 0 -134 31 -272 93 -199 90 -273 152 -361 307 -50 87
-60 119 -41 122 8 0 19 2 24 2 6 1 21 9 35 18 14 9 36 19 50 23 22 7 21 3 -15
-34 -45 -47 -40 -53 11 -15 31 24 38 26 62 15 22 -10 25 -10 15 0 -7 7 -13 16
-13 20 0 9 117 99 129 99 5 0 12 -17 16 -37 6 -34 4 -40 -29 -70 -20 -18 -33
-33 -30 -33 26 0 150 87 227 159 l39 36 -17 -40 c-9 -22 -28 -60 -42 -85 l-26
-45 27 25 c76 69 179 268 225 432 16 57 21 62 91 82 72 21 282 65 294 62 6 -1
31 -40 58 -86z m-651 -163 c-28 -80 -95 -221 -125 -262 -12 -16 -14 -12 -20
33 -6 50 -6 52 62 154 38 57 77 118 86 136 30 58 28 28 -3 -61z m1553 24 c9
-15 -141 -31 -271 -29 -94 1 -123 4 -123 14 0 14 35 17 262 22 70 1 129 -2
132 -7z m-136 -75 c12 -12 -16 -27 -69 -36 -30 -6 -74 -14 -99 -20 -25 -5 -57
-9 -72 -10 -24 0 -28 4 -28 29 0 29 2 30 58 36 31 3 64 8 72 10 21 5 130 -2
138 -9z m-2563 -236 c-44 -11 -138 -11 -155 0 -10 7 17 9 85 9 67 -1 90 -4 70
-9z m258 -9 c74 -17 66 -27 -28 -35 -41 -3 -60 -2 -45 3 22 7 18 9 -27 15 -29
4 -53 12 -53 17 0 11 103 11 153 0z m-103 -47 c0 -2 -17 -4 -37 -4 -24 0 -33
3 -25 9 12 7 62 4 62 -5z m2403 -15 c-8 -8 -47 -8 -140 -2 l-128 10 140 1
c101 2 136 -1 128 -9z m-2455 -70 c-11 -6 -45 -6 -95 -1 l-78 9 95 1 c67 1 90
-2 78 -9z m200 -6 c-32 -2 -86 -2 -120 0 -35 2 -9 3 57 3 66 0 94 -1 63 -3z
m1944 -88 c10 -2 21 1 24 6 5 9 60 4 94 -8 32 -11 -27 -22 -128 -22 -99 -1
-102 0 -92 18 10 19 30 21 102 6z m-141 -28 c-13 -13 -26 -3 -16 12 3 6 11 8
17 5 6 -4 6 -10 -1 -17z m-131 -67 c0 -5 -10 -10 -22 -10 -19 0 -20 2 -8 10
19 13 30 13 30 0z m95 1 c8 -15 -6 -19 -49 -13 -26 3 -34 7 -25 13 19 12 66
11 74 0z m-467 -171 c-2 -19 -15 -26 -65 -40 -35 -9 -63 -16 -63 -15 0 1 25
24 57 49 57 48 78 49 71 6z m816 -26 c9 -3 16 -12 16 -20 0 -10 14 -14 48 -14
56 0 86 -14 50 -23 -30 -9 -571 -9 -592 -1 -9 3 -16 14 -16 24 0 15 9 20 43
22 23 2 59 0 79 -3 24 -4 35 -3 31 4 -4 6 4 7 23 3 16 -4 77 -10 136 -13 87
-4 111 -2 130 11 25 18 29 19 52 10z m-684 -24 c0 -16 -7 -20 -30 -20 -32 0
-37 9 -18 28 19 19 48 15 48 -8z m-994 -25 c-3 -9 -10 -13 -16 -10 -6 4 -5 11
3 20 15 16 22 11 13 -10z m72 -35 c-7 -11 -16 -20 -21 -20 -4 0 -3 9 3 20 6
11 15 20 20 20 6 0 5 -9 -2 -20z m922 -107 c0 -5 -6 -25 -13 -45 -13 -36 -14
-37 -35 -22 -14 10 -22 26 -22 45 0 27 3 29 35 29 19 0 35 -3 35 -7z m-1580
-93 c-20 -13 -63 -13 -55 0 3 6 21 10 38 10 24 0 28 -3 17 -10z m653 -17 c-13
-2 -33 -2 -45 0 -13 2 -3 4 22 4 25 0 35 -2 23 -4z m609 -50 c4 -56 2 -71 -6
-62 -10 10 -18 119 -8 119 6 0 12 -26 14 -57z"/>
<path d="M1858 1033 c7 -3 16 -2 19 1 4 3 -2 6 -13 5 -11 0 -14 -3 -6 -6z"/>
<path d="M1530 620 c-24 -8 -24 -8 5 -8 17 0 39 3 50 8 18 8 18 9 -5 8 -14 0
-36 -4 -50 -8z"/>
<path d="M690 2881 c0 -20 17 -37 27 -28 7 8 -7 47 -18 47 -5 0 -9 -9 -9 -19z"/>
</g>
</svg>
